<svg xmlns="http://www.w3.org/2000/svg" xmlns:xlink="http://www.w3.org/1999/xlink" fill="none" version="1.1" width="14" height="12.5" viewBox="0 0 14 12.5">
<g>
  <g>
    <path d="M0.5201124,5.47988755C0.23603013,5.7639699,0.24460429,6.2271326,0.53900635,6.5005059L6.3195491,11.8681526C6.7032304,12.2244282,7.2967696,12.2244282,7.6804514,11.8681526L13.460994,6.5005059C13.755396,6.2271326,13.76397,5.7639699,13.479888,5.47988755C13.211547,5.21154633,12.779465,5.20215771,12.499721,5.45858961L7.3378625,10.1902928C7.1467018,10.3655233,6.8532982,10.3655233,6.6621375,10.1902928L1.5002797,5.45858967C1.2205358,5.20215771,0.78845364,5.21154633,0.5201124,5.47988755Z" fill="#474747" fill-opacity="1"/>
  </g>
  <g>
  <path d="M0.5201124,0.47988755C0.23603013,0.7639699,0.24460429,1.2271326,0.53900635,1.5005059L6.3195491,6.8681526C6.7032304,7.2244282,7.2967696,7.2244282,7.6804514,6.8681526L13.460994,1.5005059C13.755396,1.2271326,13.76397,0.7639699,13.479888,0.47988755C13.211547,0.21154633,12.779465,0.20215771,12.499721,0.45858961L7.3378625,5.1902928C7.1467018,5.3655233,6.8532982,5.3655233,6.6621375,5.1902928L1.5002797,0.45858967C1.2205358,0.20215771,0.78845364,0.21154633,0.5201124,0.47988755Z" fill="#9B9B9B" fill-opacity="1"/>
  </g>
</g>
</svg>