<?xml version="1.0" standalone="no"?><!DOCTYPE svg PUBLIC "-//W3C//DTD SVG 1.1//EN" "http://www.w3.org/Graphics/SVG/1.1/DTD/svg11.dtd"><svg t="1748508600908" class="icon" viewBox="0 0 1024 1024" version="1.1" xmlns="http://www.w3.org/2000/svg" p-id="19812" xmlns:xlink="http://www.w3.org/1999/xlink" width="64" height="64"><path d="M313.991837 914.285714c-20.37551 0-40.228571-6.269388-56.946939-18.808163-30.302041-21.942857-44.930612-58.514286-38.661225-95.085714l24.032654-141.061225c3.134694-18.285714-3.134694-36.571429-16.195919-49.110204L123.297959 509.910204c-26.644898-26.122449-36.04898-64.261224-24.555102-99.787755 11.493878-35.526531 41.795918-61.126531 78.889796-66.35102l141.583674-20.375511c18.285714-2.612245 33.959184-14.106122 41.795918-30.30204l63.216326-128.522449C440.946939 130.612245 474.383673 109.714286 512 109.714286s71.053061 20.897959 87.24898 54.334694L662.987755 292.571429c8.359184 16.195918 24.032653 27.689796 41.795918 30.30204l141.583674 20.375511c37.093878 5.22449 67.395918 30.82449 78.889796 66.35102 11.493878 35.526531 2.089796 73.665306-24.555102 99.787755l-102.4 99.787755c-13.061224 12.538776-19.330612 31.346939-16.195919 49.110204l24.032654 141.061225c6.269388 37.093878-8.359184 73.142857-38.661225 95.085714-30.302041 21.942857-69.485714 24.555102-102.4 7.314286L538.122449 836.440816c-16.195918-8.359184-35.526531-8.359184-51.722449 0l-126.955102 66.87347c-14.628571 7.314286-30.302041 10.971429-45.453061 10.971428z m162.481632-96.653061z" fill="#F2CB51" p-id="19813"></path></svg>