<?xml version="1.0" standalone="no"?><!DOCTYPE svg PUBLIC "-//W3C//DTD SVG 1.1//EN" "http://www.w3.org/Graphics/SVG/1.1/DTD/svg11.dtd"><svg t="1748264450100" class="icon" viewBox="0 0 1024 1024" version="1.1" xmlns="http://www.w3.org/2000/svg" p-id="8707" xmlns:xlink="http://www.w3.org/1999/xlink" width="64" height="64"><path d="M400.048543 623.987582a45.011783 45.011783 0 0 0 63.580047 0L920.537924 167.078247l1.083751-1.119875a44.939533 44.939533 0 1 0-64.663797-62.460171L400.048543 560.407535a44.975658 44.975658 0 0 0 0 63.580047z" p-id="8708"></path><path d="M888.892401 402.61342a45.011783 45.011783 0 0 0-44.975658 44.939533v355.54251a41.25478 41.25478 0 0 1-41.218655 41.218655h-581.612926a41.25478 41.25478 0 0 1-41.218655-41.218655v-581.612926a41.25478 41.25478 0 0 1 41.03803-41.39928h344.777252a44.975658 44.975658 0 0 0 0-89.915191H220.904537a131.278346 131.278346 0 0 0-131.133846 131.133846v581.793551a131.278346 131.278346 0 0 0 131.133846 131.169971h581.612926a131.314471 131.314471 0 0 0 131.169971-131.169971v-355.54251a45.011783 45.011783 0 0 0-44.795033-44.939533z" p-id="8709"></path></svg>